<?xml version="1.0" encoding="utf-8"?>
<!-- Generator: Adobe Illustrator 24.0.0, SVG Export Plug-In . SVG Version: 6.00 Build 0)  -->
<svg version="1.1" id="Layer_1" xmlns="http://www.w3.org/2000/svg" xmlns:xlink="http://www.w3.org/1999/xlink" x="0px" y="0px"
	 viewBox="0 0 841.9 595.3" style="enable-background:new 0 0 841.9 595.3;" xml:space="preserve">
<style type="text/css">
	.st0{fill:#002856;}
	.st1{fill:url(#SVGID_1_);}
	.st2{fill:url(#SVGID_2_);}
	.st3{fill:#FFFFFF;}
	.st4{fill:url(#SVGID_3_);}
	.st5{fill:url(#SVGID_4_);}
	.st6{fill:url(#SVGID_5_);}
	.st7{fill:url(#SVGID_6_);}
	.st8{fill:url(#SVGID_7_);}
	.st9{fill:url(#SVGID_8_);}
</style>
<g>
	<linearGradient id="SVGID_1_" gradientUnits="userSpaceOnUse" x1="279.9475" y1="214.2611" x2="290.9493" y2="288.6066">
		<stop  offset="0" style="stop-color:#8F654C"/>
		<stop  offset="0.3647" style="stop-color:#90664E"/>
		<stop  offset="0.5214" style="stop-color:#936B53"/>
		<stop  offset="0.6383" style="stop-color:#9A735C"/>
		<stop  offset="0.7353" style="stop-color:#A4806A"/>
		<stop  offset="0.8201" style="stop-color:#B1917E"/>
		<stop  offset="0.8963" style="stop-color:#C2AA9A"/>
		<stop  offset="0.9646" style="stop-color:#D8C9BE"/>
		<stop  offset="1" style="stop-color:#E7DED7"/>
	</linearGradient>
	<polygon class="st1" points="367.6,275.7 367.6,222.1 206,222.1 206,298.7 	"/>
	<linearGradient id="SVGID_2_" gradientUnits="userSpaceOnUse" x1="293.0273" y1="378.9908" x2="281.3746" y2="295.6956">
		<stop  offset="0.3724" style="stop-color:#8F654C"/>
		<stop  offset="0.6333" style="stop-color:#90664E"/>
		<stop  offset="0.7272" style="stop-color:#936A53"/>
		<stop  offset="0.7942" style="stop-color:#99725B"/>
		<stop  offset="0.8483" style="stop-color:#A37E68"/>
		<stop  offset="0.8948" style="stop-color:#AF8F7B"/>
		<stop  offset="0.9358" style="stop-color:#C0A695"/>
		<stop  offset="0.972" style="stop-color:#D4C3B7"/>
		<stop  offset="1" style="stop-color:#E9E1DB"/>
	</linearGradient>
	<path class="st2" d="M206,308.9v73.6h161.6V286L206,308.9z"/>
	<path class="st3" d="M349.6,369.1h-5.1c-0.4,0-0.6-0.2-0.7-0.5l-2.3-6.8h-13.3l-2.3,6.8c-0.1,0.4-0.3,0.5-0.7,0.5h-5
		c-0.4,0-0.5-0.2-0.4-0.5l12.1-34c0.1-0.3,0.3-0.5,0.7-0.5h4.8c0.4,0,0.6,0.2,0.7,0.5l11.9,34C350,368.9,349.9,369.1,349.6,369.1z
		 M313.8,353.4c0,2.9-0.3,5.9-0.8,7.7c-1.7,5.5-6.4,8.6-12.4,8.6c-6.2,0-10.8-2.9-12.6-8.4c-0.7-2.2-0.9-4.1-0.9-9.6
		c0-5.5,0.2-7.5,0.9-9.6c1.8-5.6,6.4-8.4,12.6-8.4c6.6,0,10.8,3.5,12.3,7.4c0.1,0.3,0.1,0.6-0.2,0.7l-4.4,1.9
		c-0.3,0.1-0.6,0-0.7-0.3c-1.6-2.8-3.7-4.3-7.1-4.3c-3.6,0-5.7,1.7-6.6,4.6c-0.4,1.3-0.6,3-0.6,8c0,4.9,0.2,6.7,0.6,8
		c1,2.8,3.1,4.6,6.6,4.6c3.1,0,5.7-1.5,6.7-4.4c0.4-1.1,0.6-2.5,0.6-4.5c0-0.2-0.1-0.3-0.3-0.3h-5.8c-0.3,0-0.5-0.2-0.5-0.5v-4.1
		c0-0.3,0.2-0.5,0.5-0.5h11.7c0.3,0,0.5,0.2,0.5,0.5V353.4z M275.9,368.5c0,0.3-0.2,0.5-0.5,0.5h-4.8c-0.3,0-0.5-0.2-0.5-0.5v-23.3
		c0-0.3,0.2-0.5,0.5-0.5l4.8-0.7c0.3,0,0.5,0.2,0.5,0.5V368.5z M275.9,339.2c0,0.3-0.1,0.5-0.5,0.5l-4.8,0.7c-0.3,0-0.5-0.2-0.5-0.5
		v-5.3c0-0.3,0.2-0.5,0.5-0.5h4.8c0.3,0,0.5,0.2,0.5,0.5V339.2z M334.8,342.8l-4.7,13.6h9.5l-4.7-13.6H334.8z"/>
	<linearGradient id="SVGID_3_" gradientUnits="userSpaceOnUse" x1="664.4253" y1="193.902" x2="637.4349" y2="284.0445">
		<stop  offset="0.242" style="stop-color:#BB9F8D"/>
		<stop  offset="0.2841" style="stop-color:#B2937F"/>
		<stop  offset="0.3797" style="stop-color:#A27D67"/>
		<stop  offset="0.4757" style="stop-color:#976F58"/>
		<stop  offset="0.5714" style="stop-color:#91674F"/>
		<stop  offset="0.6667" style="stop-color:#8F654C"/>
	</linearGradient>
	<path class="st4" d="M663.9,245.4l12.3-1.8c2.7-0.3,16-2.2,15.5-8.1c-1.2-5.7-14.5-3.7-17.1-3.2l-12.3,1.8l-25-22.9l-6.6,1l16,24.2
		l-13.2,1.9c-3.7,0.5-5.5,1-6.9,1.7l-8.5-9.2l-4.9,0.7l6.8,14.5l-2.3,15.8l4.9-0.7L628,250c1.5,0.2,3.4,0.1,7.1-0.4l13.2-1.9
		l-8.4,27.8l6.6-1L663.9,245.4z"/>
	<g>
		<linearGradient id="SVGID_4_" gradientUnits="userSpaceOnUse" x1="603.9769" y1="248.9576" x2="134.2742" y2="310.9938">
			<stop  offset="0" style="stop-color:#A17C66"/>
			<stop  offset="0.1205" style="stop-color:#8F654C"/>
			<stop  offset="0.2156" style="stop-color:#946C54"/>
			<stop  offset="0.3832" style="stop-color:#A5816B"/>
			<stop  offset="0.5458" style="stop-color:#B99C8A"/>
			<stop  offset="0.6758" style="stop-color:#9F7962"/>
			<stop  offset="0.7557" style="stop-color:#8F654C"/>
			<stop  offset="0.7886" style="stop-color:#946C54"/>
			<stop  offset="0.8469" style="stop-color:#A5816B"/>
			<stop  offset="0.9234" style="stop-color:#C1A898"/>
			<stop  offset="1" style="stop-color:#E7DED7"/>
		</linearGradient>
		<polygon class="st5" points="374.6,283.9 374.6,276 599.6,244.9 600.7,252.6 		"/>
		<linearGradient id="SVGID_5_" gradientUnits="userSpaceOnUse" x1="604.2875" y1="251.3092" x2="134.5848" y2="313.3454">
			<stop  offset="0" style="stop-color:#A17C66"/>
			<stop  offset="0.1205" style="stop-color:#8F654C"/>
			<stop  offset="0.2156" style="stop-color:#946C54"/>
			<stop  offset="0.3832" style="stop-color:#A5816B"/>
			<stop  offset="0.5458" style="stop-color:#B99C8A"/>
			<stop  offset="0.6758" style="stop-color:#9F7962"/>
			<stop  offset="0.7557" style="stop-color:#8F654C"/>
			<stop  offset="0.7886" style="stop-color:#946C54"/>
			<stop  offset="0.8469" style="stop-color:#A5816B"/>
			<stop  offset="0.9234" style="stop-color:#C1A898"/>
			<stop  offset="1" style="stop-color:#E7DED7"/>
		</linearGradient>
		<polygon class="st6" points="150.3,315.2 150.3,307.6 200.1,300.7 200.1,308.4 		"/>
	</g>
	<linearGradient id="SVGID_6_" gradientUnits="userSpaceOnUse" x1="375.6322" y1="315.1111" x2="518.7189" y2="370.3178">
		<stop  offset="0" style="stop-color:#8F654C"/>
		<stop  offset="0.2304" style="stop-color:#90664E"/>
		<stop  offset="0.3133" style="stop-color:#936A52"/>
		<stop  offset="0.3725" style="stop-color:#99725B"/>
		<stop  offset="0.4203" style="stop-color:#A37E68"/>
		<stop  offset="0.4612" style="stop-color:#AF8F7B"/>
		<stop  offset="0.4969" style="stop-color:#BFA594"/>
		<stop  offset="0.5025" style="stop-color:#C2A999"/>
		<stop  offset="0.5132" style="stop-color:#C8B2A3"/>
		<stop  offset="0.5344" style="stop-color:#D0BDB0"/>
		<stop  offset="0.5555" style="stop-color:#D3C1B5"/>
		<stop  offset="0.5815" style="stop-color:#BFA594"/>
		<stop  offset="0.6115" style="stop-color:#AF8F7B"/>
		<stop  offset="0.646" style="stop-color:#A37E68"/>
		<stop  offset="0.6863" style="stop-color:#99725B"/>
		<stop  offset="0.7361" style="stop-color:#936A53"/>
		<stop  offset="0.806" style="stop-color:#90664E"/>
		<stop  offset="1" style="stop-color:#8F654C"/>
	</linearGradient>
	<path class="st7" d="M386.4,297.6h36.9c17.3,0,29,12.1,29,29.2c0,17.1-11.7,29.5-29,29.5h-15.2v26.3h-21.8V297.6z M418.8,338.5
		c7.6,0,11.3-4.9,11.3-11.6c0-6.8-3.7-11.4-10.9-11.4h-11.1v23.1H418.8z M496.6,364.7h-27.7l-5.3,17.8h-22.4l30.2-85h22.9l30.2,85
		h-22.4L496.6,364.7z M482.7,316.9c0,0-2,9.3-3.6,14.6l-5.1,16.5h17.5l-5-16.5c-1.6-5.3-3.6-14.6-3.6-14.6H482.7z"/>
	<linearGradient id="SVGID_7_" gradientUnits="userSpaceOnUse" x1="510.846" y1="339.4372" x2="737.1447" y2="343.1305">
		<stop  offset="0" style="stop-color:#8F654C"/>
		<stop  offset="0.1328" style="stop-color:#90664E"/>
		<stop  offset="0.1806" style="stop-color:#936A52"/>
		<stop  offset="0.2147" style="stop-color:#99725B"/>
		<stop  offset="0.2423" style="stop-color:#A37E68"/>
		<stop  offset="0.2658" style="stop-color:#AF8F7B"/>
		<stop  offset="0.2864" style="stop-color:#BFA594"/>
		<stop  offset="0.2896" style="stop-color:#C2A999"/>
		<stop  offset="0.2946" style="stop-color:#C8B2A3"/>
		<stop  offset="0.3043" style="stop-color:#D0BDB0"/>
		<stop  offset="0.3141" style="stop-color:#D3C1B5"/>
		<stop  offset="0.3328" style="stop-color:#BFA594"/>
		<stop  offset="0.3544" style="stop-color:#AF8F7B"/>
		<stop  offset="0.3792" style="stop-color:#A37E68"/>
		<stop  offset="0.4083" style="stop-color:#99725B"/>
		<stop  offset="0.4441" style="stop-color:#936A53"/>
		<stop  offset="0.4944" style="stop-color:#90664E"/>
		<stop  offset="0.6341" style="stop-color:#8F654C"/>
		<stop  offset="0.6526" style="stop-color:#946C54"/>
		<stop  offset="0.6852" style="stop-color:#A5816B"/>
		<stop  offset="0.7278" style="stop-color:#C1A898"/>
		<stop  offset="0.7493" style="stop-color:#D3C1B5"/>
		<stop  offset="0.7501" style="stop-color:#D1BEB1"/>
		<stop  offset="0.7753" style="stop-color:#A07A64"/>
		<stop  offset="0.7868" style="stop-color:#8F654C"/>
		<stop  offset="1" style="stop-color:#8F654C"/>
	</linearGradient>
	<path class="st8" d="M527.6,356c0,0,10.1,8.8,21.3,8.8c4.5,0,9.3-1.7,9.3-6.8c0-10.1-40-9.7-40-35.9c0-15.7,13.8-26,31.5-26
		c19.1,0,28.6,9.6,28.6,9.6l-9.2,17c0,0-9-7.5-19.6-7.5c-4.5,0-9.4,1.9-9.4,6.7c0,10.7,40,8.8,40,35.7c0,14.1-11.3,26.4-31.3,26.4
		c-20.9,0-32.4-12.1-32.4-12.1L527.6,356z"/>
	<linearGradient id="SVGID_8_" gradientUnits="userSpaceOnUse" x1="510.8629" y1="338.4041" x2="737.1616" y2="342.0974">
		<stop  offset="0" style="stop-color:#8F654C"/>
		<stop  offset="0.1328" style="stop-color:#90664E"/>
		<stop  offset="0.1806" style="stop-color:#936A52"/>
		<stop  offset="0.2147" style="stop-color:#99725B"/>
		<stop  offset="0.2423" style="stop-color:#A37E68"/>
		<stop  offset="0.2658" style="stop-color:#AF8F7B"/>
		<stop  offset="0.2864" style="stop-color:#BFA594"/>
		<stop  offset="0.2896" style="stop-color:#C2A999"/>
		<stop  offset="0.2946" style="stop-color:#C8B2A3"/>
		<stop  offset="0.3043" style="stop-color:#D0BDB0"/>
		<stop  offset="0.3141" style="stop-color:#D3C1B5"/>
		<stop  offset="0.3328" style="stop-color:#BFA594"/>
		<stop  offset="0.3544" style="stop-color:#AF8F7B"/>
		<stop  offset="0.3792" style="stop-color:#A37E68"/>
		<stop  offset="0.4083" style="stop-color:#99725B"/>
		<stop  offset="0.4441" style="stop-color:#936A53"/>
		<stop  offset="0.4944" style="stop-color:#90664E"/>
		<stop  offset="0.6341" style="stop-color:#8F654C"/>
		<stop  offset="0.6526" style="stop-color:#946C54"/>
		<stop  offset="0.6852" style="stop-color:#A5816B"/>
		<stop  offset="0.7278" style="stop-color:#C1A898"/>
		<stop  offset="0.7493" style="stop-color:#D3C1B5"/>
		<stop  offset="0.7501" style="stop-color:#D1BEB1"/>
		<stop  offset="0.7753" style="stop-color:#A07A64"/>
		<stop  offset="0.7868" style="stop-color:#8F654C"/>
		<stop  offset="1" style="stop-color:#8F654C"/>
	</linearGradient>
	<path class="st9" d="M591,356c0,0,10.1,8.8,21.3,8.8c4.5,0,9.3-1.7,9.3-6.8c0-10.1-40-9.7-40-35.9c0-15.7,13.8-26,31.5-26
		c19.1,0,28.6,9.6,28.6,9.6l-9.2,17c0,0-9-7.5-19.6-7.5c-4.5,0-9.4,1.9-9.4,6.7c0,10.7,40,8.8,40,35.7c0,14.1-11.3,26.4-31.3,26.4
		c-20.9,0-32.4-12.1-32.4-12.1L591,356z"/>
</g>
</svg>
