<?xml version="1.0" encoding="UTF-8"?><svg id="Layer_1" xmlns="http://www.w3.org/2000/svg" viewBox="0 0 205 60"><defs><style>.cls-1{fill:#fff;}.cls-2{fill:#233e95;}.cls-2,.cls-3{fill-rule:evenodd;}.cls-3{fill:#d11f44;}</style></defs><path class="cls-2" d="M41.08,38.03c.31-6.65-3.29-10.75-7.88-10.75-4.09,0-7.41,3.7-7.41,9.59s3.72,9.01,7.78,9.01c2.94,0,6.43-1.98,7.24-6.26h-6.08c-.12.84-.62,1.46-1.27,1.46-1.31,0-1.46-1.6-1.46-3.05h9.08ZM32.01,34.36c0-1.24.45-2.31,1.39-2.31s1.53,1.1,1.53,2.31h-2.92Z"/><path class="cls-2" d="M49.3,27.69h-6.12v17.78h6.28v-8.66c0-1.05,0-2.52,1.03-2.52s1.06,1.47,1.06,2.52v8.66h6.27v-10.95c0-3.91-1.28-7.23-4.47-7.23-2.02,0-2.93,1.31-4.16,3.25h-.14l.25-2.85Z"/><polygon class="cls-2" points="81.57 28.71 81.57 27.69 68.29 27.69 68.29 33.31 71.33 33.31 72.76 33.07 72.76 33.2 67.67 44.26 67.67 45.47 81.26 45.47 81.26 39.82 77.7 39.82 76.39 40.03 76.39 39.82 77.73 36.54 81.57 28.71"/><path class="cls-2" d="M126.36,27.69h-6.62v17.78h6.77v-8.66c0-1.05,0-2.52,1.04-2.52s1.06,1.47,1.06,2.52v8.66h6.26v-10.95c0-3.91-1.26-7.23-4.47-7.23-2.01,0-2.94,1.31-4.14,3.25h-.15l.25-2.85Z"/><polygon class="cls-2" points="136.73 45.47 143.11 45.47 143.12 36.56 146.12 45.47 153.69 45.47 148.94 35.59 153.58 27.69 146.24 27.69 143.38 35.21 142.97 34.29 142.97 20.4 136.73 20.4 136.73 45.47"/><path class="cls-2" d="M90.29,29.91v-3.58h.45c.97,0,2.2-.15,2.2,1.7,0,1.74-1.08,1.88-2.06,1.88h-.59ZM83.55,45.47h10.43c3.21,0,6.69-1.77,6.69-6.95,0-3.06-1.23-4.72-3.63-6,2.67-1.53,3.05-2.85,3.05-5.06,0-5.23-4.96-7.23-7.42-7.23h-9.13v25.24ZM90.29,35.23h.65c1.07,0,2.77-.03,2.77,2.08s-1.58,2.13-2.68,2.13h-.74v-4.22Z"/><path class="cls-2" d="M111.13,45.47h6.73v-17.78h-6.73l.2,2.12h-.15c-.92-1.75-2.2-2.52-3.75-2.52-4.09,0-5.62,4.9-5.62,9.38s1.94,9.21,5.45,9.21c1.77,0,2.78-1.08,3.91-2.75h.15l-.2,2.34ZM108.03,36.51c0-1.31.63-3.46,1.62-3.46s1.68,2.02,1.68,3.39-.33,3.76-1.51,3.76-1.79-2.29-1.79-3.7Z"/><path class="cls-2" d="M7.39,45.47h8.41c5.36,0,9.2-4.75,9.2-12.25,0-9.27-4.7-12.99-10.85-12.99h-6.76v25.24ZM14.04,26.38h.41c2.43,0,3.91,3.27,3.91,6.81,0,3.32-1.7,6.05-3.91,6.05h-.41v-12.87Z"/><path class="cls-2" d="M60.39,26.08h5.59v-5.46h-5.59v5.46ZM60.05,45.47h6.27v-17.78h-6.27v17.78Z"/><path class="cls-1" d="M163.02,27.68c.39-2.22,1.25-4.28,2.46-6.06l-1.61-1.61c-1.07-1.08-1.09-2.82-.03-3.87,1.06-1.07,2.79-1.06,3.85.02l1.59,1.58c1.79-1.27,3.85-2.17,6.1-2.58v-2.13c0-1.52,1.22-2.76,2.71-2.76s2.7,1.23,2.7,2.76v2.12c2.28.39,4.38,1.31,6.19,2.59l1.45-1.44c1.05-1.08,2.78-1.1,3.84-.03,1.06,1.07,1.05,2.8-.02,3.88l-1.46,1.47c1.21,1.79,2.08,3.84,2.45,6.06h1.68c1.52,0,2.74,1.2,2.74,2.73s-1.23,2.71-2.74,2.71h-1.7c-.4,2.27-1.3,4.35-2.56,6.15l1.29,1.31c1.07,1.07,1.09,2.8.02,3.86-1.06,1.07-2.79,1.07-3.84-.01l-1.33-1.34c-1.78,1.24-3.81,2.09-6.02,2.49v1.99c0,1.52-1.21,2.75-2.7,2.75s-2.71-1.23-2.71-2.75v-2.01c-2.17-.39-4.18-1.24-5.93-2.47l-1.45,1.48c-1.08,1.09-2.8,1.1-3.86.03-1.06-1.06-1.06-2.8.02-3.87l1.44-1.45c-1.27-1.81-2.16-3.89-2.57-6.16h-2.41c-1.5,0-2.73-1.21-2.73-2.71s1.23-2.73,2.73-2.73h2.41Z"/><path class="cls-3" d="M169.08,29.33c.2-1.72.85-3.28,1.85-4.57l3.25,3.26c-.24.41-.42.83-.52,1.31h-4.58ZM172.46,23.19c1.23-.98,2.72-1.65,4.35-1.89v4.64c-.39.12-.75.29-1.1.5l-3.25-3.26ZM179,21.24c1.84.18,3.52.9,4.86,2.02l-3.24,3.24c-.47-.31-1.02-.54-1.61-.66v-4.59ZM185.38,24.83c.97,1.29,1.6,2.84,1.78,4.53h-4.57c-.08-.45-.26-.86-.47-1.25l3.27-3.28ZM187.14,31.54c-.21,1.69-.89,3.23-1.89,4.51l-3.23-3.25c.22-.38.41-.82.52-1.25h4.6ZM183.71,37.58c-1.33,1.04-2.94,1.72-4.69,1.9v-4.6c.52-.11,1.01-.29,1.44-.55l3.26,3.26ZM176.84,39.42c-1.57-.21-3.02-.84-4.22-1.76l3.26-3.29c.3.17.61.31.94.4v4.65ZM171.05,36.12c-1.03-1.28-1.74-2.87-1.95-4.6h4.6c.12.49.32.94.59,1.36l-3.24,3.24ZM164.27,31.93h-3.25c-1,0-1.82-.68-1.82-1.52s.83-1.53,1.82-1.53h3.25c.28-2.72,1.34-5.2,2.93-7.23l-2.21-2.21c-.7-.71-.81-1.78-.21-2.38.59-.59,1.64-.5,2.36.22l2.19,2.21c2.02-1.66,4.52-2.77,7.25-3.08v-2.97c0-1.01.67-1.84,1.51-1.84s1.52.83,1.52,1.84v2.96c2.77.3,5.28,1.41,7.34,3.09l2.03-2.06c.7-.72,1.78-.8,2.36-.22.58.6.49,1.66-.22,2.39l-2.05,2.06c1.59,2.04,2.66,4.51,2.92,7.22h2.68c1.02,0,1.84.69,1.84,1.53s-.82,1.52-1.84,1.52h-2.68c-.3,2.74-1.4,5.26-3.05,7.28l1.99,2.02c.72.7.81,1.78.23,2.38-.6.6-1.66.49-2.37-.23l-2.02-2.02c-2,1.61-4.47,2.66-7.16,2.95v2.99c0,1.02-.69,1.84-1.52,1.84s-1.51-.83-1.51-1.84v-3c-2.66-.3-5.09-1.35-7.08-2.92l-2.16,2.17c-.71.72-1.78.82-2.36.22-.59-.6-.49-1.67.21-2.39l2.15-2.15c-1.64-2.03-2.75-4.56-3.06-7.3Z"/></svg>